Coordinates
version=1
nRows=17
nColumns=36
inDegrees=yes

Units are S.I. units (second, meters, Newtons, ...)
If the header above contains a line with 'inDegrees', this indicates whether rotational values are in degrees (yes) or radians (no).

endheader
time	pelvis_tilt	pelvis_list	pelvis_rotation	pelvis_tx	pelvis_ty	pelvis_tz	hip_flexion_r	hip_adduction_r	hip_rotation_r	knee_angle_r	knee_angle_r_beta	ankle_angle_r	subtalar_angle_r	mtp_angle_r	hip_flexion_l	hip_adduction_l	hip_rotation_l	knee_angle_l	knee_angle_l_beta	ankle_angle_l	subtalar_angle_l	mtp_angle_l	lumbar_extension	lumbar_bending	lumbar_rotation	arm_flex_r	arm_add_r	arm_rot_r	elbow_flex_r	pro_sup_r	arm_flex_l	arm_add_l	arm_rot_l	elbow_flex_l	pro_sup_l
      1.34000000	    -19.30274389	      0.97796902	      2.46667143	     -0.33888520	      0.62586280	     -0.63706682	     93.06013371	    -15.37846143	      9.59330204	    101.32615386	      1.76847500	     21.78394164	     -8.27677308	     -7.20975045	     90.91935791	     -4.58524377	      5.37116941	     98.33680146	      1.71630096	     23.03597556	    -10.25489786	     -7.20975045	    -32.75996798	     -2.87421801	     -1.44745491	     68.08012108	    -25.51940598	      9.06875645	    111.82124483	     99.33439146	     37.77873243	    -23.51387245	      2.95209555	    120.36466615	    111.15090142
      1.35000000	    -19.86834501	      1.02262595	      2.61149570	     -0.33646964	      0.61716875	     -0.63726536	     94.83700907	    -15.54491973	      9.96604326	    103.01678770	      1.79798213	     21.73137331	     -8.47666466	     -7.21236592	     92.13014640	     -4.46055235	      5.45718832	     99.61021474	      1.73852622	     24.25361970	    -10.22991641	     -7.21236592	    -33.15789798	     -2.79894128	     -1.24171231	     69.79529405	    -25.36227677	     10.47098775	    111.63557265	     99.38925340	     40.11558075	    -23.45026466	      4.73566258	    119.22926610	    111.16020814
      1.36000000	    -20.44883191	      1.05329642	      2.78647762	     -0.33410630	      0.60931155	     -0.63756798	     96.22372350	    -15.93108032	     10.08153963	    104.30632737	      1.82048884	     22.28839403	     -8.80102770	     -7.21521715	     93.18006832	     -4.43070011	      5.46468048	    100.67446704	      1.75710092	     25.77586590	     -9.88433980	     -7.21521715	    -33.45116391	     -2.72928476	     -1.00902893	     71.30278569	    -25.40385211	     11.77184558	    111.54250152	     99.40174521	     42.37947874	    -23.41405181	      6.59618212	    117.93561286	    111.15408285
      1.37000000	    -20.89444318	      0.91299892	      2.83264477	     -0.33175573	      0.60253996	     -0.63782323	     97.02184700	    -16.35643413	      9.80404878	    105.22532665	      1.83652841	     23.71060789	     -8.48283167	     -7.22282200	     94.02930189	     -4.66747195	      5.65031688	    101.73464350	      1.77560449	     28.16075331	     -7.99604906	     -7.22282200	    -33.81788880	     -2.66166788	     -0.22348472	     72.48452557	    -26.05892799	     12.61304212	    111.87300171	     99.19911339	     45.09520953	    -22.88665324	      8.81123005	    116.32843789	    111.10359709
      1.38000000	    -21.67133964	      0.70224634	      2.97255610	     -0.32939095	      0.59628884	     -0.63845732	     97.81093249	    -17.09046735	      9.30498641	    105.81833769	      1.84687840	     25.72302914	     -7.70860680	     -7.23477840	     95.19923598	     -4.81324487	      5.79717840	    102.57553011	      1.79028073	     29.73726543	     -6.81851094	     -7.23477840	    -33.69288334	     -2.36122922	     -0.03363029	     73.68725521	    -25.84912488	     13.49756872	    111.72098239	     98.68837705	     46.94122609	    -22.94694191	     10.26684205	    115.35254254	    110.97805623
      1.39000000	    -22.37964137	      0.46331231	      2.96429073	     -0.32698992	      0.59116779	     -0.63884473	     98.18928961	    -17.74882872	      8.61792717	    106.07216922	      1.85130860	     28.13559412	     -6.85260797	     -7.24594367	     96.29520868	     -5.17633245	      5.89000771	    103.33857131	      1.80359831	     30.64538789	     -6.10557232	     -7.24594367	    -33.62064128	     -2.08994267	      0.06608314	     75.11102516	    -25.50791750	     14.55211403	    111.29211018	     98.27332502	     48.66424977	    -23.29589041	     11.44799172	    114.80680683	    110.84760793
      1.40000000	    -23.10197685	      0.33844748	      2.82959974	     -0.32466569	      0.58691770	     -0.63887278	     98.40145770	    -18.21743934	      8.05317310	    106.03308870	      1.85062651	     30.13330379	     -6.84569796	     -7.24873899	     97.33883377	     -5.68549642	      5.82237777	    103.98022583	      1.81479730	     31.00508107	     -5.89113835	     -7.24873899	    -33.48984184	     -2.02676707	      0.10231505	     76.59550048	    -25.05315413	     15.48147187	    110.72925109	     98.18612799	     50.55121530	    -23.99569218	     12.70530374	    114.51361081	    110.89368377
      1.41000000	    -23.55750969	      0.33690499	      2.72038740	     -0.32238518	      0.58377590	     -0.63898888	     98.35314783	    -18.69631222	      7.87706333	    106.04774607	      1.85088233	     33.02726888	     -4.57540719	     -7.25743867	     97.95605733	     -6.13293849	      5.68442935	    104.52364370	      1.82428173	     31.88246870	     -4.93006120	     -7.25743867	    -33.65935484	     -2.07080749	      0.26004737	     78.34414982	    -24.97929234	     16.30356292	    110.35841675	     98.01784957	     53.04403801	    -24.42100398	     14.00720477	    114.04522565	    111.01045460
      1.42000000	    -24.06973608	      0.44732603	      2.58669130	     -0.32028044	      0.58133057	     -0.63902797	     98.67373154	    -18.96564762	      7.94685189	    106.08848500	      1.85159336	     33.91958669	     -4.29940778	     -7.25984925	     98.46975903	     -6.51870592	      5.43465382	    104.86722157	      1.83027829	     32.26775473	     -4.81750289	     -7.25984925	    -33.66842081	     -2.19659181	      0.23354522	     80.28754211	    -24.64698923	     17.14025871	    109.61611750	     97.96105556	     55.70237433	    -25.11177398	     15.23049397	    113.73471183	    111.12733492
      1.43000000	    -24.25720233	      0.59802142	      2.55216717	     -0.31822160	      0.58012990	     -0.63915208	     98.98757854	    -19.25105861	      8.11116853	    106.40386756	      1.85709783	     34.32214423	     -3.48063285	     -7.26386782	     98.49683194	     -6.66864594	      5.21541888	    105.07768630	      1.83395160	     32.87653175	     -4.57194373	     -7.26386782	    -34.02040300	     -2.34313661	      0.25410360	     82.51997168	    -24.66645827	     17.93299390	    109.03177580	     97.87266032	     58.92103271	    -25.60708592	     16.58151352	    113.21727742	    111.24528438
      1.44000000	    -24.37172767	      0.70800823	      2.46189488	     -0.31627757	      0.57992802	     -0.63909014	     99.28352391	    -19.36683350	      8.15253138	    106.69241936	      1.86213400	     34.21282265	     -3.09299040	     -7.26686296	     98.34913331	     -6.73803006	      5.12968536	    105.16798260	      1.83552756	     33.32339002	     -4.54597461	     -7.26686296	    -34.36640859	     -2.46893934	      0.29908486	     84.94637271	    -24.58880877	     18.80446862	    108.20171375	     97.72842175	     62.33157635	    -26.16384086	     18.01599866	    112.65934185	    111.29250264
      1.45000000	    -24.39118941	      0.78511538	      2.28254449	     -0.31446611	      0.58081612	     -0.63883076	     99.24262808	    -19.25455391	      8.12493346	    106.74412337	      1.86303641	     34.15203902	     -2.96072057	     -7.26928935	     98.03115134	     -6.81184040	      5.13760199	    105.14029814	      1.83504438	     33.63902685	     -4.60203206	     -7.26928935	    -34.74858255	     -2.59683708	      0.43525748	     87.58600807	    -24.45632626	     19.69221636	    107.24337409	     97.55612448	     65.91989815	    -26.59425576	     19.45996937	    111.95653431	    111.29639274
      1.46000000	    -24.35908837	      0.77029895	      2.04461194	     -0.31276885	      0.58250909	     -0.63844188	     98.81014142	    -18.86593760	      8.09692687	    106.53175414	      1.85932987	     34.29063515	     -3.08614811	     -7.27734753	     97.64188842	     -6.85599409	      5.34567769	    105.05340097	      1.83352774	     33.93234279	     -4.63253266	     -7.27734753	    -35.06877657	     -2.79138608	      0.95320058	     90.15862839	    -24.94724947	     20.50339900	    106.73870626	     97.07233853	     69.93681746	    -26.41062366	     21.15960828	    110.70175292	    111.19435875
      1.47000000	    -24.39944301	      0.54977312	      1.66579407	     -0.31103272	      0.58488419	     -0.63788972	     98.14629000	    -18.16393690	      7.85264819	    106.06973738	      1.85126615	     34.43995249	     -3.32617852	     -7.27961247	     97.31765295	     -6.97792208	      5.80532170	    104.90092051	      1.83086645	     34.04536974	     -4.86330043	     -7.27961247	    -35.11546827	     -2.74130477	      1.22058533	     92.69871262	    -24.42686344	     21.20934919	    105.43215195	     96.85173474	     73.31392236	    -26.57535987	     22.08372119	    109.86766346	    111.17295434
      1.48000000	    -24.38891786	      0.23068606	      1.32702053	     -0.30905168	      0.58833536	     -0.63744082	     97.27227649	    -17.50793819	      7.42330104	    105.49139037	      1.84117209	     34.49483192	     -3.72940849	     -7.28210302	     96.83341866	     -7.01101959	      6.35988588	    104.60110681	      1.82563371	     34.11046469	     -5.16665041	     -7.28210302	    -35.14153724	     -2.59339453	      1.54396729	     95.13350714	    -24.10011441	     21.92089615	    104.37203618	     96.59755834	     76.67127902	    -26.62462987	     23.01587564	    109.01344553	    111.13733981
      1.49000000	    -24.35241670	      0.03485590	      1.16133254	     -0.30673685	      0.59297898	     -0.63745592	     96.32783010	    -17.11727576	      7.07280008	    104.79981298	      1.82910179	     34.42666332	     -4.22953343	     -7.28545426	     96.11011930	     -6.80577923	      6.74412609	    104.07965672	      1.81653269	     34.05190988	     -5.53539922	     -7.28545426	    -35.12023396	     -2.48251658	      1.69496183	     97.38426976	    -23.90410230	     22.51890084	    103.56067190	     96.23913664	     79.85663355	    -26.51537432	     23.86702106	    108.12610941	    111.06001145
      1.50000000	    -24.28456410	     -0.02584479	      1.19084445	     -0.30406840	      0.59870608	     -0.63801722	     95.28325499	    -17.04242436	      6.82799891	    104.01096556	      1.81533381	     34.39830263	     -4.55259445	     -7.28823146	     95.17730481	     -6.43016028	      6.86385644	    103.36737312	      1.80410100	     33.93913293	     -5.90513010	     -7.28823146	    -35.02687951	     -2.37755807	      1.54624154	     99.36782755	    -23.58439638	     22.91976974	    102.81447471	     95.89552249	     82.78362337	    -26.27489786	     24.50059033	    107.35554487	    110.98240156
